HIERARCHY
ROOT Hips
{
   OFFSET 0.00000 0.00000 0.00000
   CHANNELS 6 Xposition Yposition Zposition Zrotation Xrotation Yrotation
   JOINT RightUpLeg
   {
      OFFSET -8.945800 -8.667070 0.101652
      CHANNELS 3 Zrotation Xrotation Yrotation
      JOINT RightLeg
      {
         OFFSET 0.000000 -44.422697 1.372700
         CHANNELS 3 Zrotation Xrotation Yrotation
         JOINT RightFoot
         {
            OFFSET 0.253549 -42.092399 -1.460590
            CHANNELS 3 Zrotation Xrotation Yrotation
            JOINT RightToes
            {
               OFFSET 0.040000 -4.415090 8.499099
               CHANNELS 3 Zrotation Xrotation Yrotation
               End Site
               {
                  OFFSET -0.080000 -0.137448 9.779790
               }
            }
         }
      }
   }
   JOINT Spine
   {
      OFFSET 0.000000 11.890501 0.000000
      CHANNELS 3 Zrotation Xrotation Yrotation
      JOINT Spine1
      {
         OFFSET 0.000000 25.657401 0.127663
         CHANNELS 3 Zrotation Xrotation Yrotation
         JOINT HEad
         {
            OFFSET 0.000000 8.734161 0.011341
            CHANNELS 3 Zrotation Xrotation Yrotation
            End Site
            {
               OFFSET -0.290000 12.774200 2.513950
            }
         }
         JOINT LeftShoulder1
         {
            OFFSET 8.990000 -0.362252 -0.220000
            CHANNELS 3 Zrotation Xrotation Yrotation
            JOINT LeftArm
            {
               OFFSET 10.282700 -0.003380 0.322123
               CHANNELS 3 Zrotation Xrotation Yrotation
               JOINT LeftForeArm
               {
                  OFFSET 32.766900 0.099144 -1.424340
                  CHANNELS 3 Zrotation Xrotation Yrotation
                  JOINT LeftHand
                  {
                     OFFSET 27.564301 0.085362 1.022160
                     CHANNELS 3 Zrotation Xrotation Yrotation
                     End Site
                     {
                        OFFSET 16.744301 -0.600000 1.502910
                     }
                  }
               }
            }
         }
         JOINT RightShoulder
         {
            OFFSET -8.990000 -0.362252 -0.220000
            CHANNELS 3 Zrotation Xrotation Yrotation
            JOINT RightArm
            {
               OFFSET -10.282700 -0.003380 0.322123
               CHANNELS 3 Zrotation Xrotation Yrotation
               JOINT RightForeArm
               {
                  OFFSET -32.897098 0.099144 -1.424340
                  CHANNELS 3 Zrotation Xrotation Yrotation
                  JOINT RightHand
                  {
                     OFFSET -27.492101 0.085362 1.022160
                     CHANNELS 3 Zrotation Xrotation Yrotation
                     End Site
                     {
                        OFFSET -16.631201 -0.600000 1.502910
                     }
                  }
               }
            }
         }
      }
   }
   JOINT LeftUpLeg
   {
      OFFSET 8.945800 -8.667070 0.101652
      CHANNELS 3 Zrotation Xrotation Yrotation
      JOINT LeftLeg
      {
         OFFSET 0.000000 -44.422697 1.372700
         CHANNELS 3 Zrotation Xrotation Yrotation
         JOINT LeftFoot
         {
            OFFSET -0.253549 -42.092399 -1.460590
            CHANNELS 3 Zrotation Xrotation Yrotation
            JOINT LeftToes
            {
               OFFSET -0.040000 -4.415090 8.499099
               CHANNELS 3 Zrotation Xrotation Yrotation
               End Site
               {
                  OFFSET 0.080000 -0.047448 9.779790
               }
            }
         }
      }
   }
}
MOTION
Frames: 15
Frame Time: 0.016667
-192.224080 99.992846 -402.191499 -3.522974 40.222103 -184.724215 -19.694535 32.836343 -0.659219 -1.103649 25.996914 -44.016751 -24.844490 22.182202 32.193120 -29.725048 -25.499943 -18.615867 -24.799387 35.754042 101.944405 33.300666 0.197955 -86.505971 15.048790 30.622002 2.840441 35.109863 52.567192 -64.769898 56.001827 -66.404158 32.785144 13.052182 -33.852654 -34.064039 -21.841254 -46.527276 -55.345945 -4.834478 58.722681 50.164905 120.479401 198.666038 199.413165 12.334400 283.840887 75.643887 -21.594499 -9.975601 42.741326 21.480402 17.207439 -27.738722 -27.116087 10.723869 71.981595 -69.586486 17.217524 32.851837 1.566386 -19.957207 -24.012669
-192.248055 99.561079 -401.681093 -3.617903 37.930370 -183.795582 -17.877931 29.897275 -1.266422 -1.711746 26.705338 -45.196028 -26.923139 22.560426 31.570712 -30.856356 -27.173532 -19.201222 -24.887013 37.996363 102.709434 30.666033 -4.586465 -93.737475 11.259484 29.177537 7.247147 38.026310 55.272920 -62.221493 54.292098 -71.497758 35.017150 17.196234 -32.816122 -32.339279 -20.858211 -48.802993 -58.240586 -9.894863 48.652582 50.621100 130.866288 214.016328 210.672062 11.482245 296.692052 69.732407 -20.091478 -9.409598 39.336333 21.014185 11.732310 -26.374367 -27.885682 8.097194 63.495412 -44.372372 15.546612 31.147408 0.664784 -19.559729 -22.122252
-192.579114 98.857897 -401.411241 -1.812374 37.891854 -186.033903 -17.500258 28.221532 0.762824 -1.377338 28.520607 -46.455508 -28.445332 22.837443 31.356452 -31.974339 -28.949303 -19.851871 -21.948757 41.444980 107.344633 29.609386 -8.322324 -98.573031 8.348016 25.406074 10.941119 40.705738 56.801127 -61.605021 53.633517 -74.985485 34.927617 20.452957 -31.295374 -31.307190 -23.129059 -50.695563 -60.261830 -12.468544 43.241204 51.807299 146.425937 223.591037 222.401273 11.105634 311.417530 68.875136 -15.394545 -9.433431 43.782110 20.562747 10.524201 -24.705542 -29.471177 5.299291 57.819635 -19.567558 11.645075 30.086481 -0.335713 -18.518854 -19.593540
-193.185498 98.023671 -401.435693 0.016625 39.663284 -188.175482 -17.579990 28.566342 2.874198 -1.174288 30.298999 -47.674403 -28.680159 23.437109 31.275709 -32.860918 -30.562054 -20.677226 -19.836883 42.271628 111.444064 28.434894 -10.635860 -104.240243 5.748935 21.995064 14.095511 42.602161 60.151714 -60.483477 52.544854 -77.614629 34.980083 22.617492 -28.953428 -29.913889 -23.493735 -52.250582 -61.340761 -14.710347 40.125695 51.900688 163.710578 231.858175 235.882304 10.704997 324.179875 66.000377 -14.345429 -8.464145 43.423604 23.939624 12.703141 -26.218680 -29.224443 3.935911 53.679843 -45.895343 8.932696 29.345833 -0.351813 -15.171423 -18.013970
-193.894727 97.296570 -401.739114 2.377342 40.806279 -189.886636 -16.676354 29.011498 4.312340 -0.778761 31.341429 -48.559404 -29.041852 24.213767 30.991362 -33.574423 -32.137881 -21.697066 -17.191347 44.301915 115.199405 28.618778 -13.086364 -109.079371 3.106332 19.775990 16.707153 44.787787 62.492666 -60.257903 52.560191 -79.463985 35.281731 24.291042 -26.935590 -27.756316 -25.259428 -54.191178 -62.028500 -16.844797 38.260551 52.301176 181.155345 237.712030 249.921539 9.966619 336.279583 62.209035 -11.990369 -8.708587 44.855147 24.450604 12.114181 -28.123432 -29.320223 2.243026 53.230478 -34.665198 9.416886 28.979861 -0.240958 -11.650084 -16.271522
-194.742181 96.499232 -402.397684 4.453974 42.268209 168.325176 -16.185515 29.412878 5.480039 -0.434781 33.015977 -49.613179 -29.229433 24.825977 30.416437 -34.035140 -33.667153 -23.047457 -14.211939 46.491653 118.479863 29.595073 -16.149368 -114.114853 0.828992 18.008142 18.715220 46.567287 63.539740 -61.173080 54.812845 -79.610964 36.561695 26.255725 -27.249074 -26.349577 -25.507056 -55.651845 -63.592586 -18.132566 37.901761 53.367796 199.139875 242.530155 265.255560 9.353702 346.907494 60.056078 -11.755075 -8.650840 44.308509 25.255413 12.348016 -31.989215 -28.362828 1.545740 54.222027 -39.782129 8.781491 28.489366 0.274499 -8.411183 -15.572558
-195.701882 95.905655 -403.332170 7.083070 43.667411 166.382438 -15.974395 30.634539 6.546358 0.250298 34.487684 -49.915586 -29.156124 25.209627 30.170677 -34.616720 -35.304442 -24.304660 -10.670645 48.057877 122.604805 30.397863 -19.596702 -118.056705 -1.919552 18.147616 20.247874 48.459595 63.430608 -61.293599 57.832373 -79.848190 38.842073 27.886228 -28.282230 -24.851918 -26.393253 -57.480707 -65.318328 -19.299799 38.018872 54.568700 216.041561 246.669823 281.082310 8.898390 355.983394 58.744599 -10.791151 -9.589413 45.093524 25.791628 11.589906 -35.530149 -27.871190 1.022150 57.726184 -37.227311 8.545110 28.772322 0.704444 -5.561175 -14.930963
-196.780564 95.314950 -404.577669 9.522213 43.783169 164.978056 -15.160121 31.337721 7.792878 0.858393 34.600646 -49.488952 -28.770317 25.476932 30.471673 -35.334385 -36.509905 -25.129644 -7.149655 51.665433 127.696015 32.162425 -22.301720 -120.739481 -6.061556 21.556857 21.448420 50.867830 62.474627 -59.862380 61.641084 -79.838211 41.637516 29.417290 -29.975491 -23.895359 -25.931764 -59.444345 -67.128875 -19.612011 38.606463 55.404073 232.000899 250.991530 296.985504 8.441768 363.103020 59.132411 -10.952581 -10.398003 45.397177 26.162215 10.221783 -39.914314 -26.598693 0.857054 62.324902 -38.820459 8.050615 28.786908 1.280001 -3.125138 -15.114927
-197.861077 94.775151 -406.035341 12.018020 44.736960 162.703562 -15.392762 32.684497 8.877094 1.089250 34.963650 -48.747207 -28.190723 25.980284 30.854253 -35.879380 -37.325611 -26.004424 -4.072927 52.730689 131.912932 33.149285 -26.168536 -123.817055 -8.687605 23.185357 22.087925 53.355061 62.635539 -60.759512 426.694731 -79.600684 45.801562 31.004616 -30.141061 -21.370940 -26.222657 -60.545870 -67.008165 -20.366297 39.542045 57.242828 248.467338 253.356933 314.117231 8.503022 369.296417 58.773081 -10.487735 -11.598876 46.273575 26.085339 10.019115 -44.001516 -25.537452 1.324597 66.958387 -38.713779 7.718634 28.969363 1.758593 -1.394047 -15.641290
-198.882043 94.223336 -407.621606 14.571199 45.931492 160.193262 -16.013317 34.324515 9.892735 2.738831 34.753218 -48.064857 -29.121396 26.116214 31.178137 -36.330603 -38.239367 -27.140803 -1.609079 53.319093 136.074307 33.860451 -29.844911 -126.758708 -10.176802 24.314000 22.211794 55.915764 63.579328 -62.604646 433.350313 -79.448467 51.135270 32.770421 -29.014848 -19.020871 -26.186409 -60.579140 -65.749600 -21.298961 41.022205 59.745359 265.252473 254.268600 332.044947 8.914038 374.291115 58.200732 -10.511927 -12.478757 46.364960 25.791819 11.238080 -48.135007 -24.809954 2.349111 70.995541 -38.872833 7.125884 28.722506 2.141587 -0.955171 -17.069515
-199.893643 93.719977 -409.276041 17.503587 48.163219 157.186627 -17.475160 37.527095 11.068638 2.892032 34.470267 -46.680576 -29.133352 25.935550 31.565446 -36.679588 -38.973165 -28.360062 0.584513 52.456133 140.373706 35.255073 -32.550325 -129.575437 -10.666003 24.991922 22.040054 58.125811 64.435649 -64.292898 441.231231 -79.202703 56.937106 34.853943 -27.415143 -18.255656 -26.506588 -59.858972 -63.805032 -22.227104 44.752260 63.064503 283.211144 253.581647 350.771550 9.597063 378.118507 57.594252 -10.004024 -13.380183 46.725007 25.187443 13.684111 -52.378798 -24.658120 4.363560 74.791514 -38.993024 7.427446 29.055191 2.419962 -0.896174 -18.599396
-200.876233 93.339957 -410.978502 18.935924 47.981915 155.426829 -18.547865 38.089581 11.805333 2.725894 34.307805 -44.851704 -28.229090 25.717308 32.058989 -36.956917 -39.697353 -29.707262 1.810982 53.342271 145.130742 34.157407 -35.792302 -132.783795 -10.967511 25.647929 21.744703 60.902953 66.849609 -65.585355 448.445113 -79.090059 63.351330 36.372007 -25.447862 -16.232165 -25.763532 -59.685676 -62.651543 -23.397665 45.720463 65.011195 299.701597 254.414493 368.798523 10.293062 380.044593 56.945101 -9.646968 -13.780275 46.269190 24.406330 14.586955 -56.019900 -24.795888 5.135078 78.144345 -39.046778 7.108666 29.159645 2.430607 -2.195434 -20.590780
-201.811616 93.067750 -412.709535 20.303886 47.325705 154.062498 -19.401477 38.078134 11.904775 2.772522 34.391208 -42.790701 -27.128174 25.633707 32.618658 -37.170275 -40.365062 -31.107929 2.383773 54.192295 150.001322 31.650537 -37.920589 -136.428562 -12.370182 27.164697 21.573912 64.073629 67.537102 -67.158586 95.873289 -79.030787 69.584827 37.802819 -24.464906 -15.062563 -24.679553 -60.055907 -62.090490 -23.265559 46.467437 67.145732 315.846580 256.263889 386.452103 11.250940 379.812831 57.085236 -9.132144 -14.265596 46.282356 23.934607 14.933877 -58.825523 -24.969546 5.460055 81.752228 -39.251178 6.326658 29.637536 1.795994 -4.803235 -21.985068
-202.735440 92.803410 -414.429010 21.091822 46.735563 152.675273 -20.078936 37.615068 11.939440 3.217841 34.352563 -41.280711 -26.959412 25.604178 33.024678 -37.324959 -41.011096 -32.616602 3.042349 54.349232 154.112509 28.852761 -39.802524 -140.488030 -12.927496 27.956492 21.231993 67.109388 68.618567 -69.904179 103.439779 -78.930212 76.049437 38.916905 -23.165118 -14.012700 -23.423553 -60.352105 -61.141613 -22.702313 46.935397 69.222239 331.978121 257.938160 403.659208 12.689635 379.151587 57.059694 -8.583306 -14.136101 45.985468 23.231557 15.324737 -61.181023 -25.675555 5.132985 85.142741 -39.555340 6.484919 30.598797 0.914622 -7.514449 -22.806068
-203.669049 92.703007 -416.173318 21.479079 45.836829 151.835201 -20.805627 36.668670 11.944129 3.715440 34.562854 -39.616016 -25.305788 25.339134 33.621907 -37.330194 -41.190354 -33.946727 2.997640 54.101341 157.852365 25.156014 -40.723179 -145.162639 -13.232142 28.015387 20.866764 70.498153 69.775047 -73.367269 111.152087 -78.700288 82.478899 39.532363 -21.541372 -13.492136 -22.357268 -60.468143 -60.033743 -21.914168 47.204937 70.776633 347.937841 259.712370 420.068628 14.463187 377.625996 56.826153 -7.660486 -13.434817 45.581879 22.901640 15.705446 -62.180703 -25.643643 4.638792 86.875649 -39.842580 6.254685 31.206888 -0.123683 -10.297361 -23.361817
